<?xml version="1.0" standalone="no"?>
<!DOCTYPE svg PUBLIC "-//W3C//DTD SVG 20010904//EN"
 "http://www.w3.org/TR/2001/REC-SVG-20010904/DTD/svg10.dtd">
<svg version="1.0" xmlns="http://www.w3.org/2000/svg"
 width="200.000000pt" height="200.000000pt" viewBox="0 0 200.000000 200.000000"
 preserveAspectRatio="xMidYMid meet">
<metadata>
Created by potrace 1.14, written by Peter Selinger 2001-2017
</metadata>
<g transform="translate(0.000000,200.000000) scale(0.100000,-0.100000)"
fill="#000000" stroke="none">
<path d="M1008 1919 c-10 -11 -17 -22 -16 -26 1 -5 -2 -21 -7 -36 -5 -21 -13
-27 -29 -26 -32 4 -66 -10 -66 -27 0 -8 -4 -12 -10 -9 -5 3 -10 1 -10 -5 0 -6
-4 -9 -8 -6 -5 3 -9 -1 -9 -9 0 -8 3 -13 5 -10 3 3 11 0 19 -6 7 -6 13 -9 13
-6 0 3 14 1 30 -4 17 -6 30 -15 30 -21 0 -5 6 -6 13 -2 9 6 9 5 0 -8 -7 -8
-10 -18 -6 -21 3 -4 -2 -7 -12 -7 -14 0 -15 -3 -6 -14 9 -11 9 -16 0 -22 -8
-5 -9 -3 -4 6 5 8 3 11 -4 9 -7 -3 -13 -9 -14 -14 -1 -14 -26 -37 -54 -52 -18
-9 -22 -9 -18 0 4 7 0 4 -8 -5 -11 -14 -16 -15 -26 -5 -10 9 -12 9 -9 -3 2 -8
-3 -14 -9 -12 -7 1 -13 -3 -13 -9 0 -5 -4 -8 -9 -4 -5 3 -12 1 -16 -5 -4 -6
-11 -8 -16 -5 -5 4 -9 2 -9 -4 0 -5 -11 -8 -25 -6 -14 1 -28 -2 -31 -7 -3 -5
-12 -7 -19 -4 -8 3 -15 1 -17 -4 -4 -11 -100 -17 -115 -7 -18 12 -16 44 4 55
9 6 18 17 19 26 2 12 -1 14 -9 7 -7 -5 -15 -10 -19 -10 -5 -1 -10 -2 -13 -2
-3 -1 -17 -2 -32 -3 -16 -1 -34 -5 -40 -9 -7 -5 -13 -6 -13 -3 0 3 -11 -5 -25
-18 -14 -13 -25 -29 -25 -35 0 -7 -5 -9 -12 -5 -7 4 -8 3 -4 -5 4 -6 2 -19 -6
-28 -11 -14 -11 -16 2 -8 12 7 13 6 3 -7 -7 -8 -10 -18 -6 -21 3 -4 1 -7 -7
-7 -10 0 -10 -4 1 -17 10 -11 10 -14 2 -9 -7 4 -13 3 -13 -3 0 -5 5 -13 10
-16 7 -4 7 -13 0 -26 -6 -11 -8 -25 -3 -32 10 -16 11 -47 1 -41 -10 6 -11 -10
-1 -20 11 -10 12 -37 2 -30 -13 8 -11 -10 3 -24 8 -8 8 -15 -2 -26 -14 -18 -6
-51 11 -40 8 4 9 3 5 -5 -4 -6 -12 -9 -17 -6 -5 4 -9 -1 -9 -9 0 -8 5 -18 10
-21 7 -4 6 -13 -1 -27 -8 -14 -8 -23 0 -31 7 -7 7 -16 0 -30 -8 -14 -8 -18 0
-13 6 4 11 3 11 -3 0 -5 -5 -13 -11 -17 -8 -5 -8 -9 1 -14 9 -6 9 -12 0 -30
-7 -13 -8 -20 -2 -16 6 3 13 2 16 -3 3 -5 -2 -12 -11 -15 -12 -5 -14 -9 -5
-18 14 -14 16 -32 4 -24 -5 3 -9 -1 -9 -9 0 -8 4 -12 9 -9 4 3 7 -13 5 -36 -2
-23 0 -43 5 -46 5 -3 4 -12 -2 -19 -7 -8 -7 -15 -1 -19 6 -4 6 -18 1 -36 -5
-16 -5 -32 -1 -34 4 -3 6 -19 5 -35 -1 -17 3 -31 8 -31 6 0 8 -9 5 -20 -3 -11
-1 -23 5 -26 5 -3 7 -12 4 -20 -3 -8 -1 -14 5 -14 6 0 8 -7 5 -15 -3 -9 1 -18
8 -21 8 -3 13 -14 11 -25 -2 -10 1 -18 8 -16 7 1 12 -6 12 -15 0 -9 4 -20 9
-25 5 -5 6 -2 1 6 -5 9 -4 12 3 7 7 -4 12 -15 12 -25 0 -20 104 -134 114 -124
3 3 6 -1 6 -9 0 -9 11 -19 25 -22 16 -4 23 -11 19 -18 -4 -6 -3 -8 3 -5 6 4
22 -2 35 -13 14 -11 28 -16 32 -13 3 3 6 1 6 -6 0 -7 4 -10 9 -7 5 4 11 2 13
-4 1 -5 15 -11 31 -12 15 -1 27 -6 27 -10 0 -4 6 -8 14 -8 17 0 95 -40 114
-58 17 -16 25 -16 17 1 -4 6 0 4 8 -6 8 -9 22 -17 31 -17 9 0 16 -5 16 -10 0
-19 44 -29 61 -14 9 8 19 11 24 7 4 -5 5 -2 1 5 -5 9 20 25 86 56 144 68 228
105 234 105 3 0 14 9 24 21 10 12 20 20 22 18 2 -1 14 5 28 15 13 9 20 17 15
17 -6 1 2 8 18 16 15 8 27 19 27 25 0 15 26 39 34 32 3 -4 6 0 6 8 0 8 15 35
32 59 18 24 26 40 18 35 -12 -7 -12 -4 1 11 9 10 24 44 34 74 10 30 23 58 29
62 7 5 7 8 -2 8 -8 0 -10 5 -5 13 4 6 8 41 9 77 0 36 3 71 7 77 4 6 4 14 -1
16 -6 4 -7 56 -3 145 1 8 6 10 14 6 7 -5 7 -1 -2 10 -12 14 -12 19 -2 26 11 6
11 9 0 13 -12 5 -12 7 0 15 11 8 11 10 0 15 -12 5 -12 7 0 15 9 7 10 12 2 16
-6 4 -11 12 -11 17 0 6 4 8 9 5 11 -7 9 13 -2 32 -5 7 -3 12 5 12 9 0 9 3 -2
10 -10 6 -11 10 -2 10 6 0 12 5 12 11 0 5 -4 8 -8 5 -4 -2 -8 6 -8 19 0 13 4
21 8 19 4 -3 8 0 8 5 0 6 -6 11 -12 11 -10 0 -10 2 0 9 14 9 13 32 -3 43 -6 5
-5 8 3 8 6 0 12 5 12 11 0 5 -4 8 -8 5 -5 -3 -9 1 -9 9 0 8 4 12 9 9 4 -3 6 5
4 18 -2 13 -9 22 -16 20 -6 -1 -9 2 -5 8 3 6 10 8 15 5 5 -3 8 4 7 15 -1 11
-6 19 -12 17 -6 -3 -10 15 -9 47 0 28 -2 56 -5 61 -3 6 -6 17 -8 25 -1 8 -19
30 -39 48 -29 25 -46 32 -80 32 -42 0 -68 -22 -38 -34 17 -7 19 -45 2 -48 -37
-4 -45 -4 -65 4 -16 5 -23 4 -23 -5 0 -6 -7 -3 -15 7 -8 11 -15 15 -15 9 0 -7
-17 -6 -54 2 -30 7 -57 10 -60 7 -3 -3 -6 -1 -6 5 0 6 -16 14 -35 17 -19 4
-35 12 -35 18 0 6 -3 9 -6 5 -4 -3 -13 1 -21 9 -8 8 -19 12 -24 9 -5 -4 -6 0
-3 8 3 8 0 18 -7 23 -8 5 -10 3 -4 -5 5 -10 2 -9 -13 0 -12 7 -18 17 -16 21 3
4 0 8 -6 8 -6 0 -8 5 -5 10 3 6 1 10 -4 10 -6 0 -11 8 -11 19 0 21 23 45 33
34 4 -3 7 -1 7 6 0 7 4 10 9 6 5 -3 12 -1 16 4 3 5 13 8 23 6 9 -1 23 3 30 11
10 12 10 14 -3 14 -8 0 -15 4 -15 8 0 4 -21 18 -46 30 -25 12 -43 18 -39 12 3
-6 0 -7 -9 -4 -16 6 -19 15 -17 44 0 8 -7 24 -17 36 -17 20 -17 21 -34 3z"/>
<path d="M1679 1458 c-6 -20 -6 -39 0 -42 4 -3 7 6 7 20 0 20 -4 32 -7 22z"/>
<path d="M325 1220 c3 -5 8 -10 11 -10 2 0 4 5 4 10 0 6 -5 10 -11 10 -5 0 -7
-4 -4 -10z"/>
</g>
</svg>
